<svg width="2047" height="2047" fill="none" xmlns="http://www.w3.org/2000/svg"><circle cx="1023.5" cy="1023.5" r="1023.5" fill="#000"/><path d="M1778.72 1219.25c-722.53-95.1-1318.617 56.85-1522.214 155.38 114.404 40.69 231.986 71.2 276.477 81.37 299.993-143.92 616.297-191.62 735.367-202.42-38.65-6.11-314.191 28.66-445.544 51.76 125.633-45.04 499.314-108.25 955.914-86.09zM1711.35 704.971l-172.25 6.992-181.77 439.267 474.14 19.71L1991 1036.17h-429.65l150-331.199zM1303.94 1155.04l181.77-434.813-175.41 6.993-164.62 166.553-55.93-162.739-62.92 12.079c-8.65 142.904-170.126 262.967-249.785 305.137l-61.651 148.11 187.495-21.61 99.791-218.043 45.12 156.383 195.12-184.354-97.24 226.304h158.26z" fill="#fff"/><path fill-rule="evenodd" clip-rule="evenodd" d="M379.173 1279.12L151 1354.13c30.296-98.11 116.946-334.76 221.181-496.481 37.288-8.9 112.752-27.59 116.311-31.15-49.787-2.33-163.725-25.936-221.181-101.711l440.456-43.227c53.177-2.967 164.488-7.502 184.318-1.907 1.882.531 4.354 1.091 7.263 1.75 35.396 8.022 135.422 30.692 23.244 193.409C820.244 1023.27 615.794 1066.9 450.934 1102.08c-30.68 6.55-59.99 12.8-87.015 19.38h78.812l-63.558 157.66zm204.656-452.621l-83.896 156.382c59.744-6.993 193.47-37.633 250.418-104.254 71.184-83.277 6.991-86.455-48.304-88.362-44.237-1.526-145.548 15.045-190.674 23.521l72.456 12.713z" fill="#fff"/></svg>